<svg width="44" height="44" viewBox="0 0 44 44" fill="none" xmlns="http://www.w3.org/2000/svg">
<path d="M44 22C44 34.1503 34.1503 44 22 44C9.84974 44 0 34.1503 0 22C0 9.84974 9.84974 0 22 0C34.1503 0 44 9.84974 44 22Z" fill="#0C4A6E"/>
<path d="M22 7C13.7163 7 7 13.8214 7 22.2349C7 29.3737 11.84 35.347 18.365 37C18.295 36.7943 18.25 36.5557 18.25 36.2598V33.6559C17.6413 33.6559 16.6212 33.6559 16.365 33.6559C15.3387 33.6559 14.4262 33.2078 13.9837 32.3749C13.4925 31.4494 13.4075 30.0339 12.19 29.168C11.8287 28.8798 12.1037 28.551 12.52 28.5954C13.2887 28.8163 13.9262 29.3521 14.5262 30.1468C15.1237 30.9429 15.405 31.1231 16.5212 31.1231C17.0625 31.1231 17.8725 31.0914 18.635 30.9695C19.045 29.912 19.7537 28.9382 20.62 28.4786C15.625 27.9568 13.2413 25.4329 13.2413 22.0063C13.2413 20.5311 13.86 19.1041 14.9113 17.9018C14.5663 16.7084 14.1325 14.2747 15.0438 13.3479C17.2913 13.3479 18.65 14.8282 18.9762 15.2281C20.0962 14.8383 21.3262 14.6174 22.6187 14.6174C23.9137 14.6174 25.1487 14.8383 26.2712 15.2306C26.5937 14.8333 27.9538 13.3479 30.2063 13.3479C31.1213 14.2759 30.6825 16.7198 30.3337 17.9107C31.3787 19.1105 31.9938 20.5336 31.9938 22.0063C31.9938 25.4304 29.6137 27.953 24.6262 28.4774C25.9987 29.2048 27 31.2488 27 32.7888V36.2598C27 36.3919 26.9712 36.4871 26.9562 36.6001C32.8012 34.5193 37 28.8824 37 22.2349C37 13.8214 30.2837 7 22 7Z" fill="white"/>
</svg>
