<svg width="44" height="44" viewBox="0 0 44 44" fill="none" xmlns="http://www.w3.org/2000/svg">
<path d="M44 22C44 34.1503 34.1503 44 22 44C9.84974 44 0 34.1503 0 22C0 9.84974 9.84974 0 22 0C34.1503 0 44 9.84974 44 22Z" fill="#0C4A6E"/>
<path d="M10.45 33.136V32.674C10.978 32.6007 11.44 32.4247 11.836 32.146C12.232 31.882 12.5327 31.4053 12.738 30.716C12.958 30.0413 13.068 29.066 13.068 27.79V15.756C13.068 15.2133 13.0313 14.8173 12.958 14.568C12.8847 14.304 12.7307 14.128 12.496 14.04C12.276 13.9373 11.946 13.8787 11.506 13.864V13.424C11.902 13.4387 12.43 13.4533 13.09 13.468C13.75 13.4827 14.4467 13.49 15.18 13.49C15.9133 13.49 16.632 13.4827 17.336 13.468C18.0547 13.4533 18.6413 13.4387 19.096 13.424V13.864C18.656 13.8787 18.3187 13.9373 18.084 14.04C17.864 14.128 17.7173 14.304 17.644 14.568C17.5707 14.8173 17.534 15.2133 17.534 15.756V23.808C17.534 24.4093 17.534 25.062 17.534 25.766C17.5487 26.4553 17.5267 27.13 17.468 27.79C17.424 28.45 17.3213 29.0367 17.16 29.55C16.8373 30.562 16.126 31.4127 15.026 32.102C13.926 32.7913 12.4007 33.136 10.45 33.136Z" fill="white"/>
<path d="M33.5643 13.402V13.842C33.2269 14.0033 32.8676 14.3113 32.4863 14.766C32.1049 15.206 31.6869 15.8733 31.2323 16.768L27.2723 24.622H25.7983L20.6503 15.096C20.4009 14.6267 20.1663 14.304 19.9463 14.128C19.7263 13.952 19.5356 13.864 19.3743 13.864V13.402C19.8289 13.446 20.2983 13.4827 20.7823 13.512C21.2809 13.5267 21.8236 13.534 22.4103 13.534C23.1583 13.534 23.9649 13.5193 24.8303 13.49C25.7103 13.4607 26.5169 13.4313 27.2503 13.402V13.864C26.8836 13.864 26.5463 13.8787 26.2383 13.908C25.9303 13.9373 25.7103 14.0107 25.5783 14.128C25.4463 14.2307 25.4463 14.4213 25.5783 14.7L28.9003 21.08L27.8663 22.444L29.7143 18.748C30.3303 17.5307 30.6676 16.57 30.7263 15.866C30.7996 15.162 30.6749 14.656 30.3523 14.348C30.0296 14.0253 29.5749 13.8567 28.9883 13.842V13.402C29.5456 13.4167 30.0369 13.4313 30.4623 13.446C30.9023 13.4607 31.3716 13.468 31.8703 13.468C32.1636 13.468 32.4643 13.4607 32.7723 13.446C33.0803 13.4313 33.3443 13.4167 33.5643 13.402ZM29.1863 20.354V26.668C29.1863 27.196 29.2229 27.592 29.2963 27.856C29.3843 28.12 29.5383 28.296 29.7583 28.384C29.9783 28.472 30.3083 28.5307 30.7483 28.56V29C30.3229 28.9707 29.7583 28.956 29.0543 28.956C28.3503 28.9413 27.6536 28.934 26.9643 28.934C26.2163 28.934 25.4903 28.9413 24.7863 28.956C24.0969 28.956 23.5543 28.9707 23.1583 29V28.56C23.6129 28.5307 23.9503 28.472 24.1703 28.384C24.3903 28.296 24.5369 28.12 24.6103 27.856C24.6836 27.592 24.7203 27.196 24.7203 26.668V22.158L27.1183 23.522L29.1863 20.354Z" fill="white"/>
</svg>
