<svg width="44" height="44" viewBox="0 0 44 44" fill="none" xmlns="http://www.w3.org/2000/svg">
<path d="M44 22C44 34.1503 34.1503 44 22 44C9.84974 44 0 34.1503 0 22C0 9.84974 9.84974 0 22 0C34.1503 0 44 9.84974 44 22Z" fill="#0C4A6E"/>
<path d="M31.995 32L32 31.9991V24.6641C32 21.0758 31.2275 18.3116 27.0325 18.3116C25.0159 18.3116 23.6625 19.4183 23.11 20.4675H23.0517V18.6467H19.0742V31.9991H23.2158V25.3875C23.2158 23.6467 23.5458 21.9633 25.7016 21.9633C27.8259 21.9633 27.8575 23.95 27.8575 25.4991V32H31.995Z" fill="white"/>
<path d="M12.33 18.6476H16.4767V32.0001H12.33V18.6476Z" fill="white"/>
<path d="M14.4017 12C13.0758 12 12 13.0758 12 14.4017C12 15.7275 13.0758 16.8258 14.4017 16.8258C15.7275 16.8258 16.8033 15.7275 16.8033 14.4017C16.8025 13.0758 15.7267 12 14.4017 12Z" fill="white"/>
</svg>
